<svg width="1402" height="2333" viewBox="0 0 1402 2333" fill="none" xmlns="http://www.w3.org/2000/svg">
<path d="M117.948 501.224C302.845 594.905 549.552 696.644 636.472 783.565C699.363 846.456 715.446 883.195 726.312 940.082C737.179 996.969 698.738 1267.18 667.566 1401.66L567.458 1914.79C490.129 2215.11 816.307 2300.34 924.208 2321.15C1152.96 2365.27 1348.02 2265.01 1414.56 2215.65L1518.19 1126.51C1567.58 974.97 1389.3 625.371 1283.8 485.699C1212.98 391.942 883.968 89.4624 626.204 34.9125C245.913 -69.6316 70.514 90.0619 30.351 182.977C-41.583 378.637 28.0299 455.666 117.948 501.224Z" fill="#F9E3E3"/>
</svg>
