<svg width="41" height="41" viewBox="0 0 41 41" fill="none" xmlns="http://www.w3.org/2000/svg">
<path d="M17.6131 14.0698V16.8252H15.5964V20.193H17.6131V30.2041H21.7586V20.193H24.5395C24.5395 20.193 24.8016 18.5781 24.9276 16.8112H21.7746V14.5101C21.7746 14.1639 22.2267 13.7016 22.6749 13.7016H24.9316V10.1938H21.8606C17.5111 10.1938 17.6131 13.5656 17.6131 14.0698Z" fill="white"/>
<path d="M8.21979 4.18955C7.15856 4.18955 6.14079 4.61119 5.39039 5.36172C4.63999 6.11225 4.21841 7.13019 4.21841 8.1916V32.2039C4.21841 33.2653 4.63999 34.2833 5.39039 35.0338C6.14079 35.7843 7.15856 36.206 8.21979 36.206H32.228C33.2893 36.206 34.307 35.7843 35.0574 35.0338C35.8078 34.2833 36.2294 33.2653 36.2294 32.2039V8.1916C36.2294 7.13019 35.8078 6.11225 35.0574 5.36172C34.307 4.61119 33.2893 4.18955 32.228 4.18955H8.21979ZM8.21979 0.1875H32.228C34.3505 0.1875 36.386 1.03079 37.8868 2.53185C39.3876 4.03291 40.2308 6.06878 40.2308 8.1916V32.2039C40.2308 34.3267 39.3876 36.3626 37.8868 37.8637C36.386 39.3647 34.3505 40.208 32.228 40.208H8.21979C6.09733 40.208 4.0618 39.3647 2.56099 37.8637C1.06019 36.3626 0.217041 34.3267 0.217041 32.2039V8.1916C0.217041 6.06878 1.06019 4.03291 2.56099 2.53185C4.0618 1.03079 6.09733 0.1875 8.21979 0.1875V0.1875Z" fill="white"/>
</svg>
