<svg width="41" height="41" viewBox="0 0 41 41" fill="none" xmlns="http://www.w3.org/2000/svg">
<path d="M20.2032 0.1875C14.7644 0.1875 14.0865 0.213767 11.958 0.303824C9.82079 0.408891 8.37512 0.740352 7.09952 1.23567C5.76447 1.73976 4.55541 2.52901 3.55661 3.54839C2.53456 4.54502 1.74501 5.75496 1.24428 7.0919C0.749048 8.36771 0.417643 9.81364 0.312593 11.9512C0.216298 14.0814 0.196289 14.758 0.196289 20.1978C0.196289 25.6375 0.222551 26.3154 0.312593 28.4443C0.417643 30.5756 0.749048 32.0278 1.24428 33.3036C1.74829 34.6389 2.5374 35.8481 3.55661 36.8471C4.55307 37.8693 5.76281 38.659 7.09952 39.1598C8.37512 39.6489 9.82705 39.9866 11.958 40.0917C14.0878 40.188 14.7644 40.208 20.2032 40.208C25.6419 40.208 26.3198 40.1817 28.4483 40.0917C30.5793 39.9866 32.0312 39.6477 33.3068 39.1598C34.6418 38.6557 35.8509 37.8665 36.8497 36.8471C37.8731 35.8516 38.6628 34.6413 39.162 33.3036C39.651 32.0278 39.9887 30.5756 40.0937 28.4443C40.19 26.3142 40.21 25.6375 40.21 20.1978C40.21 14.758 40.1838 14.0801 40.0937 11.9512C39.9887 9.81989 39.6498 8.36021 39.162 7.0919C38.658 5.75663 37.8689 4.54736 36.8497 3.54839C35.8543 2.52485 34.6443 1.73496 33.3068 1.23567C32.0312 0.740352 30.5793 0.408891 28.4483 0.303824C26.3185 0.207513 25.6419 0.1875 20.2032 0.1875ZM20.2032 3.7898C25.5444 3.7898 26.1822 3.81606 28.2932 3.90612C30.2403 3.99743 31.3008 4.32264 32.0049 4.59781C32.8754 4.91917 33.6632 5.43065 34.311 6.09502C34.9741 6.74021 35.4836 7.52636 35.8017 8.39523C36.0768 9.09943 36.402 10.1601 36.4933 12.1076C36.5833 14.2189 36.6096 14.8581 36.6096 20.199C36.6096 25.5399 36.5833 26.1791 36.4858 28.2904C36.3807 30.2379 36.0556 31.2986 35.7817 32.0028C35.4028 32.9421 34.9801 33.5988 34.2822 34.3092C33.6322 34.9694 32.8449 35.4785 31.9762 35.8002C31.2808 36.0754 30.2053 36.4006 28.2507 36.4919C26.1284 36.5819 25.5031 36.6082 20.1481 36.6082C14.7931 36.6082 14.1691 36.5819 12.0443 36.4844C10.0972 36.3793 9.02292 36.0541 8.31884 35.7802C7.3684 35.4012 6.71684 34.9784 6.01901 34.2805C5.31494 33.5763 4.86723 32.9059 4.52206 31.974C4.24193 31.2786 3.92178 30.2029 3.81798 28.2479C3.7467 26.1503 3.71293 25.4999 3.71293 20.169C3.71293 14.8406 3.7467 14.1889 3.81798 12.0651C3.92178 10.1101 4.24193 9.03689 4.52206 8.33895C4.86723 7.38709 5.31619 6.73667 6.01901 6.03248C6.71559 5.33578 7.3684 4.88549 8.31884 4.53277C9.02292 4.25884 10.0709 3.93364 12.0256 3.83608C14.1478 3.75978 14.7731 3.73226 20.1206 3.73226L20.2032 3.7898ZM20.2032 9.92746C18.8542 9.92696 17.5184 10.1923 16.272 10.7084C15.0256 11.2245 13.8932 11.9812 12.9393 12.9352C11.9855 13.8892 11.2289 15.0219 10.7129 16.2684C10.1969 17.515 9.9316 18.8511 9.9321 20.2003C9.9316 21.5494 10.1969 22.8855 10.7129 24.1321C11.2289 25.3786 11.9855 26.5113 12.9393 27.4653C13.8932 28.4193 15.0256 29.176 16.272 29.6921C17.5184 30.2082 18.8542 30.4735 20.2032 30.4731C21.5521 30.4735 22.8879 30.2082 24.1343 29.6921C25.3807 29.176 26.5131 28.4193 27.467 27.4653C28.4208 26.5113 29.1774 25.3786 29.6934 24.1321C30.2094 22.8855 30.4747 21.5494 30.4742 20.2003C30.4747 18.8511 30.2094 17.515 29.6934 16.2684C29.1774 15.0219 28.4208 13.8892 27.467 12.9352C26.5131 11.9812 25.3807 11.2245 24.1343 10.7084C22.8879 10.1923 21.5521 9.92696 20.2032 9.92746ZM20.2032 26.8708C16.5164 26.8708 13.5338 23.8876 13.5338 20.2003C13.5338 16.5129 16.5164 13.5298 20.2032 13.5298C23.8899 13.5298 26.8725 16.5129 26.8725 20.2003C26.8725 23.8876 23.8899 26.8708 20.2032 26.8708ZM33.2893 9.5172C33.2886 10.1547 33.035 10.7658 32.584 11.2164C32.1331 11.6669 31.5218 11.92 30.8844 11.92C30.5692 11.92 30.2572 11.8579 29.966 11.7373C29.6748 11.6166 29.4103 11.4398 29.1874 11.217C28.9646 10.9941 28.7878 10.7295 28.6672 10.4382C28.5466 10.147 28.4845 9.83491 28.4845 9.5197C28.4845 9.20449 28.5466 8.89237 28.6672 8.60115C28.7878 8.30994 28.9646 8.04533 29.1874 7.82244C29.4103 7.59956 29.6748 7.42275 29.966 7.30213C30.2572 7.1815 30.5692 7.11942 30.8844 7.11942C32.2063 7.11942 33.2893 8.1951 33.2893 9.5172Z" fill="white"/>
</svg>
