<svg width="52" height="52" viewBox="0 0 52 52" fill="none" xmlns="http://www.w3.org/2000/svg">
<g id="vuesax/outline/arrow-up">
<g id="vuesax/outline/arrow-up_2">
<g id="arrow-up">
<path id="Vector" d="M22.6091 39C22.6091 38.5926 22.459 38.1853 22.1374 37.8636L10.2587 25.985L22.1374 14.1063C22.7592 13.4845 22.7592 12.4553 22.1374 11.8335C21.5156 11.2117 20.4864 11.2117 19.8646 11.8335L6.84953 24.8486C6.22773 25.4704 6.22773 26.4996 6.84953 27.1214L19.8646 40.1364C20.4864 40.7582 21.5156 40.7582 22.1374 40.1364C22.459 39.8363 22.6091 39.4074 22.6091 39Z" fill="#181320"/>
<path id="Vector_2" d="M46.0436 25.9846C46.0436 25.1055 45.3146 24.3765 44.4355 24.3765L8.34933 24.3765C7.47022 24.3765 6.74121 25.1055 6.74121 25.9846C6.74121 26.8637 7.47023 27.5927 8.34933 27.5927L44.4355 27.5927C45.3146 27.5927 46.0436 26.8637 46.0436 25.9846Z" fill="#181320"/>
</g>
</g>
</g>
</svg>
