<svg width="41" height="41" viewBox="0 0 41 41" fill="none" xmlns="http://www.w3.org/2000/svg">
<g id="linkedin">
<path id="Vector" d="M30.2478 22.4603V29.8581H25.9604V22.9546C25.9604 21.2217 25.3401 20.0391 23.7876 20.0391C22.6032 20.0391 21.897 20.8355 21.5869 21.6079C21.4748 21.884 21.4448 22.2682 21.4448 22.6524V29.8581H17.1553C17.1553 29.8581 17.2134 18.1681 17.1553 16.9575H21.4448V18.7845L21.4168 18.8265H21.4448V18.7865C22.015 17.906 23.0314 16.6534 25.3101 16.6534C28.1311 16.6534 30.2478 18.4983 30.2478 22.4603ZM12.6678 10.7363C11.2013 10.7363 10.241 11.7008 10.241 12.9655C10.241 14.2061 11.1733 15.1966 12.6118 15.1966H12.6398C14.1363 15.1966 15.0666 14.2041 15.0666 12.9655C15.0386 11.7008 14.1363 10.7363 12.6678 10.7363ZM10.4951 29.8581H14.7845V16.9575H10.4951V29.8581Z" fill="white"/>
<path id="Vector_2" d="M8.24029 4.18955C7.17906 4.18955 6.1613 4.61119 5.4109 5.36172C4.66049 6.11225 4.23892 7.13019 4.23892 8.1916V32.2039C4.23892 33.2653 4.66049 34.2833 5.4109 35.0338C6.1613 35.7843 7.17906 36.206 8.24029 36.206H32.2485C33.3098 36.206 34.3275 35.7843 35.0779 35.0338C35.8283 34.2833 36.2499 33.2653 36.2499 32.2039V8.1916C36.2499 7.13019 35.8283 6.11225 35.0779 5.36172C34.3275 4.61119 33.3098 4.18955 32.2485 4.18955H8.24029ZM8.24029 0.1875H32.2485C34.371 0.1875 36.4065 1.03079 37.9073 2.53185C39.4081 4.03291 40.2513 6.06878 40.2513 8.1916V32.2039C40.2513 34.3267 39.4081 36.3626 37.9073 37.8637C36.4065 39.3647 34.371 40.208 32.2485 40.208H8.24029C6.11783 40.208 4.0823 39.3647 2.5815 37.8637C1.08069 36.3626 0.237549 34.3267 0.237549 32.2039V8.1916C0.237549 6.06878 1.08069 4.03291 2.5815 2.53185C4.0823 1.03079 6.11783 0.1875 8.24029 0.1875V0.1875Z" fill="white"/>
</g>
</svg>
