<svg width="364" height="273" viewBox="0 0 364 273" fill="none" xmlns="http://www.w3.org/2000/svg">
<path d="M215.601 256.371C229.655 261.099 236.682 263.463 242.211 264.65C300.011 277.062 355.905 236.893 362.569 178.152C363.207 172.533 363.207 165.119 363.207 150.291L363.207 130.859C363.207 115.581 363.207 107.943 362.201 100.906C358.316 73.7166 343.419 49.3215 321.006 33.4464C315.206 29.3381 308.411 25.8491 294.82 18.8711L289.037 15.9017C279.774 11.1457 275.143 8.76766 270.376 6.90717C259.314 2.58995 247.571 0.277464 235.698 0.0780542C230.582 -0.00788058 225.394 0.436521 215.02 1.32533L91.8137 11.8806C85.7125 12.4034 82.6618 12.6647 79.6695 13.1045C68.1418 14.7989 56.999 18.4948 46.7438 24.0254C44.0817 25.4611 41.4796 27.0746 36.2754 30.3018V30.3018C24.4434 37.6387 18.5275 41.3072 13.4592 45.4552C-6.22805 61.5673 -19.0344 84.5771 -22.3524 109.8C-23.2066 116.293 -23.2066 123.263 -23.2066 137.204V137.204C-23.2066 168.479 -23.2066 184.117 -20.3165 195.876C-8.90253 242.315 33.7938 274.174 81.5613 271.894C93.6563 271.317 108.626 266.871 138.565 257.979L148.052 255.162C151.631 254.098 153.421 253.567 155.191 253.111C172.732 248.592 191.171 248.922 208.539 254.066C210.291 254.585 212.061 255.18 215.601 256.371V256.371Z" fill="url(#paint0_linear_1340_51239)"/>
<defs>
<linearGradient id="paint0_linear_1340_51239" x1="438.015" y1="22.1213" x2="-48.4591" y2="386.095" gradientUnits="userSpaceOnUse">
<stop offset="0.0189486" stop-color="#FF7940"/>
<stop offset="1" stop-color="#FC0C01"/>
</linearGradient>
</defs>
</svg>
