<svg width="52" height="52" viewBox="0 0 52 52" fill="none" xmlns="http://www.w3.org/2000/svg">
<g id="vuesax/outline/arrow-up">
<g id="vuesax/outline/arrow-up_2">
<g id="arrow-up">
<path id="Vector" d="M29.5044 39C29.5044 38.5926 29.6545 38.1853 29.9761 37.8636L41.8548 25.985L29.9761 14.1063C29.3543 13.4845 29.3543 12.4553 29.9761 11.8335C30.5979 11.2117 31.6271 11.2117 32.2489 11.8335L45.264 24.8486C45.8858 25.4704 45.8858 26.4996 45.264 27.1214L32.2489 40.1364C31.6271 40.7582 30.5979 40.7582 29.9761 40.1364C29.6545 39.8363 29.5044 39.4074 29.5044 39Z" fill="#181320"/>
<path id="Vector_2" d="M6.06985 25.9846C6.06985 25.1055 6.79887 24.3765 7.67797 24.3765L43.7642 24.3765C44.6433 24.3765 45.3723 25.1055 45.3723 25.9846C45.3723 26.8637 44.6433 27.5927 43.7642 27.5927L7.67797 27.5927C6.79887 27.5927 6.06985 26.8637 6.06985 25.9846Z" fill="#181320"/>
</g>
</g>
</g>
</svg>
